<?xml version="1.0" encoding="UTF-8" standalone="no"?>
<svg width="20px" height="20px" viewBox="0 0 20 20" version="1.1" xmlns="http://www.w3.org/2000/svg" xmlns:xlink="http://www.w3.org/1999/xlink" xmlns:sketch="http://www.bohemiancoding.com/sketch/ns">
        <g id="Group" sketch:type="MSLayerGroup" transform="translate(-1.000000, 0.000000)" fill="">
            <path d="M5.41351,14.45433 L15.38362,4.48422 L16.51498,5.61558 L6.54487,15.58569 L5.41351,14.45433 L5.41351,14.45433 Z" id="Rectangle-path" sketch:type="MSShapeGroup"></path>
            <path d="M18.94739,0.97269 L19.86688,0.05359 L20.99808,1.18527 L20.07859,2.10437 L18.94739,0.97269 L18.94739,0.97269 Z" id="Rectangle-path" sketch:type="MSShapeGroup"></path>
            <path d="M3.05228,18.98694 L2.13279,19.90604 L1.00159,18.77436 L1.92108,17.85526 L3.05228,18.98694 L3.05228,18.98694 Z" id="Rectangle-path" sketch:type="MSShapeGroup"></path>
            <path d="M11.06063,3.25315 L13.04163,1.27439 L19.68461,7.92489 L17.70361,9.90365 L11.06063,3.25315 L11.06063,3.25315 Z" id="Rectangle-path" sketch:type="MSShapeGroup"></path>
            <path d="M15.03607,1.58573 L16.59257,0.03077 L21.04541,4.48802 L19.48891,6.04298 L15.03607,1.58573 L15.03607,1.58573 Z" id="Rectangle-path" sketch:type="MSShapeGroup"></path>
            <path d="M10.93741,16.67069 L8.95641,18.64945 L2.31343,11.99895 L4.29443,10.02019 L10.93741,16.67069 L10.93741,16.67069 Z" id="Rectangle-path" sketch:type="MSShapeGroup"></path>
            <path d="M6.96263,18.42567 L5.40613,19.98063 L0.95329,15.52338 L2.50979,13.96842 L6.96263,18.42567 L6.96263,18.42567 Z" id="Rectangle-path" sketch:type="MSShapeGroup"></path>
        </g>
</svg>
